<svg width="64" height="27" viewBox="0 0 64 27" fill="none" xmlns="http://www.w3.org/2000/svg">
<g clip-path="url(#clip0_1760_5812)">
<path d="M27.4955 8.83691H24.0278V10.8767H22.7954V13.3736H24.0278V17.3686C24.0278 19.5607 25.1157 20.3902 27.538 20.3902C28.2775 20.3902 28.7619 20.331 29.1359 20.2632V17.851C28.9489 17.8764 28.8044 17.8933 28.541 17.8933C27.827 17.8933 27.487 17.5886 27.487 16.8353V13.3736H29.1274V10.8767H27.487V8.83691H27.4955Z" fill="white"/>
<path d="M33.8184 12.5522H33.7504V10.8848H30.2827V20.1951H33.7504V15.4892C33.7504 14.1942 34.4219 13.534 35.7223 13.534C36.0793 13.534 36.4362 13.6017 36.7337 13.7287V10.8171C36.4702 10.724 36.1898 10.6816 35.8923 10.6816C34.7789 10.6816 34.0564 11.3334 33.8184 12.5522Z" fill="white"/>
<path d="M43.7884 16.1073C43.7884 16.9791 43.2869 17.6055 42.471 17.6055C41.5955 17.6055 41.1621 17.0299 41.1621 16.0989V10.8766H37.6943V16.8522C37.6943 19.0867 38.8417 20.3816 40.9071 20.3816C42.318 20.3816 43.2784 19.7045 43.7374 18.4519H43.8054V20.1785H47.2731V10.8682H43.8054V16.1073H43.7884Z" fill="white"/>
<path d="M54.3786 14.5663L52.6872 14.2531C51.8373 14.0923 51.5993 13.9061 51.5993 13.576V13.5675C51.5993 13.1697 52.0158 12.9327 52.6532 12.9327C53.4012 12.9327 53.8091 13.3475 53.8601 13.7876L53.8686 13.8638H57.0219V13.8045C57.0219 12.1117 55.5515 10.6729 52.6532 10.6729C49.9334 10.6729 48.2845 11.8239 48.2845 13.7622V13.7707C48.2845 15.2095 49.2705 16.1998 51.1233 16.5384L52.8147 16.8515C53.5881 16.9954 53.8686 17.1901 53.8686 17.5287V17.5371C53.8686 17.9095 53.4521 18.1381 52.7807 18.1381C51.9988 18.1381 51.5823 17.8164 51.4463 17.2747L51.4293 17.207H48.0806L48.0891 17.2832C48.3015 19.1368 49.8399 20.3979 52.7892 20.3979C55.5005 20.3979 57.3108 19.1537 57.3108 17.1478V17.1393C57.2938 15.7174 56.3929 14.9387 54.3786 14.5663Z" fill="white"/>
<path d="M63.983 13.3726V10.8757H62.3426V8.83594H58.8749V10.8757H57.6255V13.3726H58.8579V17.3676C58.8579 19.5598 59.9458 20.3892 62.3681 20.3892C63.1076 20.3892 63.592 20.33 63.966 20.2623V17.85C63.779 17.8754 63.6345 17.8924 63.371 17.8924C62.6571 17.8924 62.3171 17.5877 62.3171 16.8344V13.3726H63.983Z" fill="white"/>
<path d="M18.7326 13.8724C17.9167 13.3984 16.9478 13.1107 15.8344 13.0091V12.9329C16.7268 12.789 17.5002 12.4928 18.1717 12.0442C18.8431 11.5956 19.3616 11.0285 19.7441 10.3514C20.118 9.67429 20.3135 8.90407 20.3135 8.04922V8.01536C20.3135 6.89812 20.0245 5.92477 19.4466 5.11223C18.8686 4.29122 18.0527 3.66489 16.9903 3.22476C15.9279 2.78464 14.6615 2.56458 13.1911 2.56458H11.2957V0H6.87606V2.56458H0.0170898V24.5708H6.87606V27H11.2957V24.5708H13.3611C15.0014 24.5708 16.4208 24.3254 17.6192 23.826C18.8176 23.3266 19.7356 22.6157 20.3815 21.6846C21.0275 20.7536 21.3504 19.6448 21.3504 18.3498V18.316C21.3504 17.3511 21.1209 16.4878 20.6535 15.726C20.1945 14.9643 19.5486 14.3464 18.7326 13.8724ZM11.6782 6.4326C12.6641 6.4326 13.446 6.65266 14.007 7.08433C14.568 7.52445 14.8484 8.14232 14.8484 8.94639V8.98025C14.8484 9.82665 14.534 10.4784 13.8965 10.9439C13.2676 11.4094 12.3581 11.6379 11.1682 11.6379H5.53315V6.4326H11.6782ZM15.6984 17.9013C15.6984 18.8069 15.3754 19.5009 14.7294 19.9749C14.0835 20.4489 13.1656 20.6944 11.9757 20.6944H5.52466V15.0997H11.7717C12.6216 15.0997 13.3356 15.2013 13.9135 15.4129C14.4915 15.6245 14.9334 15.9376 15.2394 16.3524C15.5369 16.7671 15.6899 17.2749 15.6899 17.8759V17.9013H15.6984Z" fill="white"/>
</g>
<defs>
<clipPath id="clip0_1760_5812">
<rect width="64" height="27" fill="white"/>
</clipPath>
</defs>
</svg>
